<?xml version="1.0" encoding="iso-8859-1"?>
<!-- Generator: Adobe Illustrator 19.0.0, SVG Export Plug-In . SVG Version: 6.00 Build 0)  -->
<svg version="1.1" id="Capa_1" xmlns="http://www.w3.org/2000/svg" xmlns:xlink="http://www.w3.org/1999/xlink" x="0px" y="0px"
	 viewBox="0 0 512 512" style="enable-background:new 0 0 512 512;" xml:space="preserve">
<g transform="matrix(1.25 0 0 -1.25 0 45)">
	<path style="fill:#DD2E44;" d="M364.089-328.089V-9.511c0,25.133-20.378,45.511-45.511,45.511H91.022
		C65.889,36,45.511,15.622,45.511-9.511v-318.578c0-25.133,20.378-45.511,45.511-45.511h227.556
		C343.711-373.6,364.089-353.222,364.089-328.089z"/>
	<g>
		<path d="M45.511-282.578v-45.511c0-25.133,20.378-45.511,45.511-45.511h227.556c25.133,0,45.511,20.378,45.511,45.511v45.511
			C317.247-251.357,123.574-188.904,45.511-282.578z"/>
		<path style="fill:#FFFFFF;" d="M173.801-192.385c47.628,0,86.232,38.616,86.232,86.232s-38.605,86.221-86.232,86.221
			c-47.616,0-86.209-38.605-86.209-86.221S126.185-192.385,173.801-192.385z"/>
	</g>
</g>
<g>
</g>
<g>
</g>
<g>
</g>
<g>
</g>
<g>
</g>
<g>
</g>
<g>
</g>
<g>
</g>
<g>
</g>
<g>
</g>
<g>
</g>
<g>
</g>
<g>
</g>
<g>
</g>
<g>
</g>
</svg>
